<svg xmlns="http://www.w3.org/2000/svg" viewBox="0 0 64 64" role="img" aria-label="Big Indexer">
  <defs>
    <linearGradient id="g" x1="8" y1="8" x2="56" y2="56" gradientUnits="userSpaceOnUse">
      <stop offset="0" stop-color="#667eea"/>
      <stop offset="1" stop-color="#764ba2"/>
    </linearGradient>
  </defs>
  <rect x="4" y="4" width="56" height="56" rx="14" fill="url(#g)"/>
  <path d="M22 18h10c5.5 0 9 2.8 9 7 0 2.8-1.6 4.8-4.1 5.8 3.2.9 5.1 3.2 5.1 6.4 0 4.8-3.8 8.8-10.2 8.8H22V18zm8.6 12.8c3 0 4.8-1.2 4.8-3.4 0-2.1-1.6-3.3-4.5-3.3H29v6.7h1.6zm.8 13.2c3.4 0 5.3-1.4 5.3-4 0-2.4-1.8-3.8-5.1-3.8H29v7.8h2.4z" fill="#fff"/>
</svg>
